<svg aria-roledescription="er" role="graphics-document document" viewBox="0 0 453.365234375 860" style="max-width: 453.365px; background-color: white;" xmlns:xlink="http://www.w3.org/1999/xlink" xmlns="http://www.w3.org/2000/svg" width="100%" id="my-svg"><style>#my-svg{font-family:"trebuchet ms",verdana,arial,sans-serif;font-size:16px;fill:#333;}#my-svg .error-icon{fill:#552222;}#my-svg .error-text{fill:#552222;stroke:#552222;}#my-svg .edge-thickness-normal{stroke-width:2px;}#my-svg .edge-thickness-thick{stroke-width:3.5px;}#my-svg .edge-pattern-solid{stroke-dasharray:0;}#my-svg .edge-pattern-dashed{stroke-dasharray:3;}#my-svg .edge-pattern-dotted{stroke-dasharray:2;}#my-svg .marker{fill:#333333;stroke:#333333;}#my-svg .marker.cross{stroke:#333333;}#my-svg svg{font-family:"trebuchet ms",verdana,arial,sans-serif;font-size:16px;}#my-svg .entityBox{fill:#ECECFF;stroke:#9370DB;}#my-svg .attributeBoxOdd{fill:#ffffff;stroke:#9370DB;}#my-svg .attributeBoxEven{fill:#f2f2f2;stroke:#9370DB;}#my-svg .relationshipLabelBox{fill:hsl(80, 100%, 96.2745098039%);opacity:0.7;background-color:hsl(80, 100%, 96.2745098039%);}#my-svg .relationshipLabelBox rect{opacity:0.5;}#my-svg .relationshipLine{stroke:#333333;}#my-svg .entityTitleText{text-anchor:middle;font-size:18px;fill:#333;}#my-svg #MD_PARENT_START{fill:#f5f5f5!important;stroke:#333333!important;stroke-width:1;}#my-svg #MD_PARENT_END{fill:#f5f5f5!important;stroke:#333333!important;stroke-width:1;}#my-svg :root{--mermaid-font-family:"trebuchet ms",verdana,arial,sans-serif;}</style><g/><defs><marker orient="auto" markerHeight="240" markerWidth="190" refY="7" refX="0" id="MD_PARENT_START"><path d="M 18,7 L9,13 L1,7 L9,1 Z"/></marker></defs><defs><marker orient="auto" markerHeight="28" markerWidth="20" refY="7" refX="19" id="MD_PARENT_END"><path d="M 18,7 L9,13 L1,7 L9,1 Z"/></marker></defs><defs><marker orient="auto" markerHeight="18" markerWidth="18" refY="9" refX="0" id="ONLY_ONE_START"><path d="M9,0 L9,18 M15,0 L15,18" fill="none" stroke="gray"/></marker></defs><defs><marker orient="auto" markerHeight="18" markerWidth="18" refY="9" refX="18" id="ONLY_ONE_END"><path d="M3,0 L3,18 M9,0 L9,18" fill="none" stroke="gray"/></marker></defs><defs><marker orient="auto" markerHeight="18" markerWidth="30" refY="9" refX="0" id="ZERO_OR_ONE_START"><circle r="6" cy="9" cx="21" fill="white" stroke="gray"/><path d="M9,0 L9,18" fill="none" stroke="gray"/></marker></defs><defs><marker orient="auto" markerHeight="18" markerWidth="30" refY="9" refX="30" id="ZERO_OR_ONE_END"><circle r="6" cy="9" cx="9" fill="white" stroke="gray"/><path d="M21,0 L21,18" fill="none" stroke="gray"/></marker></defs><defs><marker orient="auto" markerHeight="36" markerWidth="45" refY="18" refX="18" id="ONE_OR_MORE_START"><path d="M0,18 Q 18,0 36,18 Q 18,36 0,18 M42,9 L42,27" fill="none" stroke="gray"/></marker></defs><defs><marker orient="auto" markerHeight="36" markerWidth="45" refY="18" refX="27" id="ONE_OR_MORE_END"><path d="M3,9 L3,27 M9,18 Q27,0 45,18 Q27,36 9,18" fill="none" stroke="gray"/></marker></defs><defs><marker orient="auto" markerHeight="36" markerWidth="57" refY="18" refX="18" id="ZERO_OR_MORE_START"><circle r="6" cy="18" cx="48" fill="white" stroke="gray"/><path d="M0,18 Q18,0 36,18 Q18,36 0,18" fill="none" stroke="gray"/></marker></defs><defs><marker orient="auto" markerHeight="36" markerWidth="57" refY="18" refX="39" id="ZERO_OR_MORE_END"><circle r="6" cy="18" cx="9" fill="white" stroke="gray"/><path d="M21,18 Q39,0 57,18 Q39,36 21,18" fill="none" stroke="gray"/></marker></defs><path style="stroke: gray; fill: none;" marker-start="url(#ZERO_OR_MORE_START)" marker-end="url(#ONLY_ONE_END)" d="M123.34130859375,95L123.34130859375,103.33333333333333C123.34130859375,111.66666666666667,123.34130859375,128.33333333333334,130.50187174479166,145.14893007067192C137.66243489583334,161.9645268080105,151.98356119791666,178.92905361602098,159.14412434895834,187.41131702002622L166.3046875,195.89358042403148" class="er relationshipLine"/><path style="stroke: gray; fill: none;" marker-start="url(#ZERO_OR_MORE_START)" marker-end="url(#ONLY_ONE_END)" d="M323.34130859375,95L323.34130859375,103.33333333333333C323.34130859375,111.66666666666667,323.34130859375,128.33333333333334,315.0669759114583,145.83445353732463C306.7926432291667,163.33557374131595,290.2439778645833,181.6711474826319,281.9696451822917,190.8389343532899L273.6953125,200.00672122394786" class="er relationshipLine"/><path style="stroke: gray; fill: none;" marker-start="url(#ONLY_ONE_START)" marker-end="url(#ONLY_ONE_END)" d="M166.3046875,300.487421875L150.25390625,312.73951822916666C134.203125,324.99161458333333,102.1015625,349.4958072916667,86.05078125,370.0812369791667C70,390.6666666666667,70,407.3333333333333,70,415.6666666666667L70,424" class="er relationshipLine"/><path style="stroke: gray; fill: none;" marker-start="url(#ONLY_ONE_START)" marker-end="url(#ONLY_ONE_END)" d="M273.6953125,298.7392812400666L290.85986328125,311.2827343667222C308.0244140625,323.82618749337774,342.353515625,348.9130937466889,359.51806640625,370.53988020667776C376.6826171875,392.1666666666667,376.6826171875,410.3333333333333,376.6826171875,419.4166666666667L376.6826171875,428.5" class="er relationshipLine"/><path style="stroke: gray; fill: none;" marker-start="url(#ONLY_ONE_START)" marker-end="url(#ONLY_ONE_END)" d="M220,324L220,332.3333333333333C220,340.6666666666667,220,357.3333333333333,220,380.25C220,403.1666666666667,220,432.3333333333333,220,461.5C220,490.6666666666667,220,519.8333333333334,220,549C220,578.1666666666666,220,607.3333333333334,220,636.5C220,665.6666666666666,220,694.8333333333334,227.86559323230424,717.75C235.73118646460844,740.6666666666666,251.46237292921685,757.3333333333334,259.3279661615211,765.6666666666666L267.1935593938253,774" class="er relationshipLine"/><path style="stroke: gray; fill: none;" marker-start="url(#ONLY_ONE_START)" marker-end="url(#ONLY_ONE_END)" d="M376.6826171875,494.5L376.6826171875,503.5833333333333C376.6826171875,512.6666666666666,376.6826171875,530.8333333333334,376.6826171875,548.25C376.6826171875,565.6666666666666,376.6826171875,582.3333333333334,376.6826171875,590.6666666666666L376.6826171875,599" class="er relationshipLine"/><path style="stroke: gray; fill: none;" marker-start="url(#ONLY_ONE_START)" marker-end="url(#ONLY_ONE_END)" d="M376.6826171875,674L376.6826171875,682.3333333333334C376.6826171875,690.6666666666666,376.6826171875,707.3333333333334,368.8170239551958,724C360.95143072289153,740.6666666666666,345.2202442582831,757.3333333333334,337.3546510259789,765.6666666666666L329.4890577936747,774" class="er relationshipLine"/><g transform="translate(73.34130859375,20 )" id="entity-WebClient-bd142934-e3a4-5201-be6f-cf8b93791a71"><rect height="75" width="100" y="0" x="0" class="er entityBox"/><text style="dominant-baseline: middle; text-anchor: middle; font-size: 12px;" transform="translate(50,37.5)" y="0" x="0" id="text-entity-WebClient-bd142934-e3a4-5201-be6f-cf8b93791a71" class="er entityLabel">WebClient</text></g><g transform="translate(166.3046875,195 )" id="entity-ApiServer-d8cca0e6-7c6f-5940-a471-b6c1bd1a0a8a"><rect height="129" width="107.390625" y="0" x="0" class="er entityBox"/><text style="dominant-baseline: middle; text-anchor: middle; font-size: 12px;" transform="translate(53.6953125,12)" y="0" x="0" id="text-entity-ApiServer-d8cca0e6-7c6f-5940-a471-b6c1bd1a0a8a" class="er entityLabel">ApiServer</text><rect height="21" width="18.5" y="24" x="0" class="er attributeBoxOdd"/><text style="dominant-baseline: middle; font-size: 10.2px;" transform="translate(5,34.5)" y="0" x="0" id="text-entity-ApiServer-d8cca0e6-7c6f-5940-a471-b6c1bd1a0a8a-attr-1-type" class="er entityLabel">fn</text><rect height="21" width="88.890625" y="24" x="18.5" class="er attributeBoxOdd"/><text style="dominant-baseline: middle; font-size: 10.2px;" transform="translate(23.5,34.5)" y="0" x="0" id="text-entity-ApiServer-d8cca0e6-7c6f-5940-a471-b6c1bd1a0a8a-attr-1-name" class="er entityLabel">deposit()</text><rect height="21" width="18.5" y="45" x="0" class="er attributeBoxEven"/><text style="dominant-baseline: middle; font-size: 10.2px;" transform="translate(5,55.5)" y="0" x="0" id="text-entity-ApiServer-d8cca0e6-7c6f-5940-a471-b6c1bd1a0a8a-attr-2-type" class="er entityLabel">fn</text><rect height="21" width="88.890625" y="45" x="18.5" class="er attributeBoxEven"/><text style="dominant-baseline: middle; font-size: 10.2px;" transform="translate(23.5,55.5)" y="0" x="0" id="text-entity-ApiServer-d8cca0e6-7c6f-5940-a471-b6c1bd1a0a8a-attr-2-name" class="er entityLabel">withdraw()</text><rect height="21" width="18.5" y="66" x="0" class="er attributeBoxOdd"/><text style="dominant-baseline: middle; font-size: 10.2px;" transform="translate(5,76.5)" y="0" x="0" id="text-entity-ApiServer-d8cca0e6-7c6f-5940-a471-b6c1bd1a0a8a-attr-3-type" class="er entityLabel">fn</text><rect height="21" width="88.890625" y="66" x="18.5" class="er attributeBoxOdd"/><text style="dominant-baseline: middle; font-size: 10.2px;" transform="translate(23.5,76.5)" y="0" x="0" id="text-entity-ApiServer-d8cca0e6-7c6f-5940-a471-b6c1bd1a0a8a-attr-3-name" class="er entityLabel">transfer()</text><rect height="21" width="18.5" y="87" x="0" class="er attributeBoxEven"/><text style="dominant-baseline: middle; font-size: 10.2px;" transform="translate(5,97.5)" y="0" x="0" id="text-entity-ApiServer-d8cca0e6-7c6f-5940-a471-b6c1bd1a0a8a-attr-4-type" class="er entityLabel">fn</text><rect height="21" width="88.890625" y="87" x="18.5" class="er attributeBoxEven"/><text style="dominant-baseline: middle; font-size: 10.2px;" transform="translate(23.5,97.5)" y="0" x="0" id="text-entity-ApiServer-d8cca0e6-7c6f-5940-a471-b6c1bd1a0a8a-attr-4-name" class="er entityLabel">getBalance()</text><rect height="21" width="18.5" y="108" x="0" class="er attributeBoxOdd"/><text style="dominant-baseline: middle; font-size: 10.2px;" transform="translate(5,118.5)" y="0" x="0" id="text-entity-ApiServer-d8cca0e6-7c6f-5940-a471-b6c1bd1a0a8a-attr-5-type" class="er entityLabel">fn</text><rect height="21" width="88.890625" y="108" x="18.5" class="er attributeBoxOdd"/><text style="dominant-baseline: middle; font-size: 10.2px;" transform="translate(23.5,118.5)" y="0" x="0" id="text-entity-ApiServer-d8cca0e6-7c6f-5940-a471-b6c1bd1a0a8a-attr-5-name" class="er entityLabel">getTransactions()</text></g><g transform="translate(273.34130859375,20 )" id="entity-CliClient-0a121bd5-ebe3-5f49-946d-78c3c7f45631"><rect height="75" width="100" y="0" x="0" class="er entityBox"/><text style="dominant-baseline: middle; text-anchor: middle; font-size: 12px;" transform="translate(50,37.5)" y="0" x="0" id="text-entity-CliClient-0a121bd5-ebe3-5f49-946d-78c3c7f45631" class="er entityLabel">CliClient</text></g><g transform="translate(20,424 )" id="entity-Database-94c5a458-ab78-56ae-8c20-070265f95b76"><rect height="75" width="100" y="0" x="0" class="er entityBox"/><text style="dominant-baseline: middle; text-anchor: middle; font-size: 12px;" transform="translate(50,37.5)" y="0" x="0" id="text-entity-Database-94c5a458-ab78-56ae-8c20-070265f95b76" class="er entityLabel">Database</text></g><g transform="translate(326.6826171875,428.5 )" id="entity-Proover-05248229-48e9-510c-92c8-544baa2245e8"><rect height="66" width="100" y="0" x="0" class="er entityBox"/><text style="dominant-baseline: middle; text-anchor: middle; font-size: 12px;" transform="translate(50,12)" y="0" x="0" id="text-entity-Proover-05248229-48e9-510c-92c8-544baa2245e8" class="er entityLabel">Proover</text><rect height="21" width="35.28125" y="24" x="0" class="er attributeBoxOdd"/><text style="dominant-baseline: middle; font-size: 10.2px;" transform="translate(5,34.5)" y="0" x="0" id="text-entity-Proover-05248229-48e9-510c-92c8-544baa2245e8-attr-1-type" class="er entityLabel">fn</text><rect height="21" width="64.71875" y="24" x="35.28125" class="er attributeBoxOdd"/><text style="dominant-baseline: middle; font-size: 10.2px;" transform="translate(40.28125,34.5)" y="0" x="0" id="text-entity-Proover-05248229-48e9-510c-92c8-544baa2245e8-attr-1-name" class="er entityLabel">proove()</text><rect height="21" width="35.28125" y="45" x="0" class="er attributeBoxEven"/><text style="dominant-baseline: middle; font-size: 10.2px;" transform="translate(5,55.5)" y="0" x="0" id="text-entity-Proover-05248229-48e9-510c-92c8-544baa2245e8-attr-2-type" class="er entityLabel">fn</text><rect height="21" width="64.71875" y="45" x="35.28125" class="er attributeBoxEven"/><text style="dominant-baseline: middle; font-size: 10.2px;" transform="translate(40.28125,55.5)" y="0" x="0" id="text-entity-Proover-05248229-48e9-510c-92c8-544baa2245e8-attr-2-name" class="er entityLabel">verify()</text></g><g transform="translate(223.75830078125,774 )" id="entity-ValidiumStateContract-e310e907-d12f-5721-836e-cfd7c4302491"><rect height="66" width="149.166015625" y="0" x="0" class="er entityBox"/><text style="dominant-baseline: middle; text-anchor: middle; font-size: 12px;" transform="translate(74.5830078125,12)" y="0" x="0" id="text-entity-ValidiumStateContract-e310e907-d12f-5721-836e-cfd7c4302491" class="er entityLabel">ValidiumStateContract</text><rect height="21" width="47.9658203125" y="24" x="0" class="er attributeBoxOdd"/><text style="dominant-baseline: middle; font-size: 10.2px;" transform="translate(5,34.5)" y="0" x="0" id="text-entity-ValidiumStateContract-e310e907-d12f-5721-836e-cfd7c4302491-attr-1-type" class="er entityLabel">fn</text><rect height="21" width="101.2001953125" y="24" x="47.9658203125" class="er attributeBoxOdd"/><text style="dominant-baseline: middle; font-size: 10.2px;" transform="translate(52.9658203125,34.5)" y="0" x="0" id="text-entity-ValidiumStateContract-e310e907-d12f-5721-836e-cfd7c4302491-attr-1-name" class="er entityLabel">getState()</text><rect height="21" width="47.9658203125" y="45" x="0" class="er attributeBoxEven"/><text style="dominant-baseline: middle; font-size: 10.2px;" transform="translate(5,55.5)" y="0" x="0" id="text-entity-ValidiumStateContract-e310e907-d12f-5721-836e-cfd7c4302491-attr-2-type" class="er entityLabel">fn</text><rect height="21" width="101.2001953125" y="45" x="47.9658203125" class="er attributeBoxEven"/><text style="dominant-baseline: middle; font-size: 10.2px;" transform="translate(52.9658203125,55.5)" y="0" x="0" id="text-entity-ValidiumStateContract-e310e907-d12f-5721-836e-cfd7c4302491-attr-2-name" class="er entityLabel">updateState()</text></g><g transform="translate(320,599 )" id="entity-VerifierContract-137f85c4-0e66-54cf-a765-1096478faa35"><rect height="75" width="113.365234375" y="0" x="0" class="er entityBox"/><text style="dominant-baseline: middle; text-anchor: middle; font-size: 12px;" transform="translate(56.6826171875,37.5)" y="0" x="0" id="text-entity-VerifierContract-137f85c4-0e66-54cf-a765-1096478faa35" class="er entityLabel">VerifierContract</text></g><rect height="14" width="56.359375" y="143.25550842285156" x="104.70420837402344" class="er relationshipLabelBox"/><text style="text-anchor: middle; dominant-baseline: middle; font-size: 12px;" y="150.25550842285156" x="132.88389587402344" id="rel1" class="er relationshipLabel">connect-to</text><rect height="14" width="56.359375" y="146.06985473632812" x="283.05059814453125" class="er relationshipLabelBox"/><text style="text-anchor: middle; dominant-baseline: middle; font-size: 12px;" y="153.06985473632812" x="311.23028564453125" id="rel2" class="er relationshipLabel">connect-to</text><rect height="14" width="67.6796875" y="345.2084045410156" x="68.77926635742188" class="er relationshipLabelBox"/><text style="text-anchor: middle; dominant-baseline: middle; font-size: 12px;" y="352.2084045410156" x="102.61911010742188" id="rel3" class="er relationshipLabel">read-write-to</text><rect height="14" width="19.673828125" y="345.34588623046875" x="332.44793701171875" class="er relationshipLabelBox"/><text style="text-anchor: middle; dominant-baseline: middle; font-size: 12px;" y="352.34588623046875" x="342.28485107421875" id="rel4" class="er relationshipLabel">use</text><rect height="14" width="19.673828125" y="548.869873046875" x="210.1630859375" class="er relationshipLabelBox"/><text style="text-anchor: middle; dominant-baseline: middle; font-size: 12px;" y="555.869873046875" x="220" id="rel5" class="er relationshipLabel">use</text><rect height="14" width="19.673828125" y="539.75" x="366.845703125" class="er relationshipLabelBox"/><text style="text-anchor: middle; dominant-baseline: middle; font-size: 12px;" y="546.75" x="376.6826171875" id="rel6" class="er relationshipLabel">use</text><rect height="14" width="28.6875" y="722.6573486328125" x="351.51690673828125" class="er relationshipLabelBox"/><text style="text-anchor: middle; dominant-baseline: middle; font-size: 12px;" y="729.6573486328125" x="365.86065673828125" id="rel7" class="er relationshipLabel">notify</text></svg>