<?xml version="1.0" encoding="UTF-8" standalone="no"?>
<!DOCTYPE svg PUBLIC "-//W3C//DTD SVG 1.1//EN"
 "http://www.w3.org/Graphics/SVG/1.1/DTD/svg11.dtd">
<!-- Generated by graphviz version 8.1.0 (0)
 -->
<!-- Pages: 1 -->
<svg width="278pt" height="260pt"
 viewBox="0.00 0.00 278.00 260.00" xmlns="http://www.w3.org/2000/svg" xmlns:xlink="http://www.w3.org/1999/xlink">
<g id="graph0" class="graph" transform="scale(1 1) rotate(0) translate(4 256)">
<polygon fill="white" stroke="none" points="-4,4 -4,-256 274,-256 274,4 -4,4"/>
<!-- D1 -->
<g id="node1" class="node">
<title>D1</title>
<ellipse fill="none" stroke="black" cx="27" cy="-18" rx="27" ry="18"/>
<text text-anchor="middle" x="27" y="-13.32" font-family="Times,serif" font-size="14.00">D1</text>
</g>
<!-- H1 -->
<g id="node5" class="node">
<title>H1</title>
<ellipse fill="none" stroke="black" cx="27" cy="-90" rx="27" ry="18"/>
<text text-anchor="middle" x="27" y="-85.33" font-family="Times,serif" font-size="14.00">H1</text>
</g>
<!-- D1&#45;&gt;H1 -->
<g id="edge1" class="edge">
<title>D1&#45;&gt;H1</title>
<path fill="none" stroke="black" d="M27,-36.3C27,-43.76 27,-52.68 27,-61.03"/>
<polygon fill="black" stroke="black" points="23.5,-60.9 27,-70.9 30.5,-60.9 23.5,-60.9"/>
</g>
<!-- D2 -->
<g id="node2" class="node">
<title>D2</title>
<ellipse fill="none" stroke="black" cx="99" cy="-18" rx="27" ry="18"/>
<text text-anchor="middle" x="99" y="-13.32" font-family="Times,serif" font-size="14.00">D2</text>
</g>
<!-- H2 -->
<g id="node6" class="node">
<title>H2</title>
<ellipse fill="none" stroke="black" cx="99" cy="-90" rx="27" ry="18"/>
<text text-anchor="middle" x="99" y="-85.33" font-family="Times,serif" font-size="14.00">H2</text>
</g>
<!-- D2&#45;&gt;H2 -->
<g id="edge2" class="edge">
<title>D2&#45;&gt;H2</title>
<path fill="none" stroke="black" d="M99,-36.3C99,-43.76 99,-52.68 99,-61.03"/>
<polygon fill="black" stroke="black" points="95.5,-60.9 99,-70.9 102.5,-60.9 95.5,-60.9"/>
</g>
<!-- D3 -->
<g id="node3" class="node">
<title>D3</title>
<ellipse fill="none" stroke="black" cx="171" cy="-18" rx="27" ry="18"/>
<text text-anchor="middle" x="171" y="-13.32" font-family="Times,serif" font-size="14.00">D3</text>
</g>
<!-- H3 -->
<g id="node7" class="node">
<title>H3</title>
<ellipse fill="none" stroke="black" cx="171" cy="-90" rx="27" ry="18"/>
<text text-anchor="middle" x="171" y="-85.33" font-family="Times,serif" font-size="14.00">H3</text>
</g>
<!-- D3&#45;&gt;H3 -->
<g id="edge3" class="edge">
<title>D3&#45;&gt;H3</title>
<path fill="none" stroke="black" d="M171,-36.3C171,-43.76 171,-52.68 171,-61.03"/>
<polygon fill="black" stroke="black" points="167.5,-60.9 171,-70.9 174.5,-60.9 167.5,-60.9"/>
</g>
<!-- D4 -->
<g id="node4" class="node">
<title>D4</title>
<ellipse fill="none" stroke="black" cx="243" cy="-18" rx="27" ry="18"/>
<text text-anchor="middle" x="243" y="-13.32" font-family="Times,serif" font-size="14.00">D4</text>
</g>
<!-- H4 -->
<g id="node8" class="node">
<title>H4</title>
<ellipse fill="none" stroke="black" cx="243" cy="-90" rx="27" ry="18"/>
<text text-anchor="middle" x="243" y="-85.33" font-family="Times,serif" font-size="14.00">H4</text>
</g>
<!-- D4&#45;&gt;H4 -->
<g id="edge4" class="edge">
<title>D4&#45;&gt;H4</title>
<path fill="none" stroke="black" d="M243,-36.3C243,-43.76 243,-52.68 243,-61.03"/>
<polygon fill="black" stroke="black" points="239.5,-60.9 243,-70.9 246.5,-60.9 239.5,-60.9"/>
</g>
<!-- A1 -->
<g id="node9" class="node">
<title>A1</title>
<ellipse fill="none" stroke="black" cx="99" cy="-162" rx="27" ry="18"/>
<text text-anchor="middle" x="99" y="-157.32" font-family="Times,serif" font-size="14.00">A1</text>
</g>
<!-- H1&#45;&gt;A1 -->
<g id="edge5" class="edge">
<title>H1&#45;&gt;A1</title>
<path fill="none" stroke="black" d="M41.92,-105.5C51.86,-115.17 65.12,-128.06 76.35,-138.98"/>
<polygon fill="black" stroke="black" points="73.49,-141.05 83.1,-145.51 78.37,-136.03 73.49,-141.05"/>
</g>
<!-- H2&#45;&gt;A1 -->
<g id="edge6" class="edge">
<title>H2&#45;&gt;A1</title>
<path fill="none" stroke="black" d="M99,-108.3C99,-115.76 99,-124.68 99,-133.03"/>
<polygon fill="black" stroke="black" points="95.5,-132.9 99,-142.9 102.5,-132.9 95.5,-132.9"/>
</g>
<!-- A2 -->
<g id="node10" class="node">
<title>A2</title>
<ellipse fill="none" stroke="black" cx="171" cy="-162" rx="27" ry="18"/>
<text text-anchor="middle" x="171" y="-157.32" font-family="Times,serif" font-size="14.00">A2</text>
</g>
<!-- H3&#45;&gt;A2 -->
<g id="edge7" class="edge">
<title>H3&#45;&gt;A2</title>
<path fill="none" stroke="black" d="M171,-108.3C171,-115.76 171,-124.68 171,-133.03"/>
<polygon fill="black" stroke="black" points="167.5,-132.9 171,-142.9 174.5,-132.9 167.5,-132.9"/>
</g>
<!-- H4&#45;&gt;A2 -->
<g id="edge8" class="edge">
<title>H4&#45;&gt;A2</title>
<path fill="none" stroke="black" d="M228.08,-105.5C218.14,-115.17 204.88,-128.06 193.65,-138.98"/>
<polygon fill="black" stroke="black" points="191.63,-136.03 186.9,-145.51 196.51,-141.05 191.63,-136.03"/>
</g>
<!-- R -->
<g id="node11" class="node">
<title>R</title>
<ellipse fill="none" stroke="black" cx="135" cy="-234" rx="27" ry="18"/>
<text text-anchor="middle" x="135" y="-229.32" font-family="Times,serif" font-size="14.00">R</text>
</g>
<!-- A1&#45;&gt;R -->
<g id="edge9" class="edge">
<title>A1&#45;&gt;R</title>
<path fill="none" stroke="black" d="M107.35,-179.24C111.62,-187.54 116.92,-197.85 121.73,-207.21"/>
<polygon fill="black" stroke="black" points="119.01,-208.56 126.7,-215.85 125.23,-205.36 119.01,-208.56"/>
</g>
<!-- A2&#45;&gt;R -->
<g id="edge10" class="edge">
<title>A2&#45;&gt;R</title>
<path fill="none" stroke="black" d="M162.65,-179.24C158.38,-187.54 153.08,-197.85 148.27,-207.21"/>
<polygon fill="black" stroke="black" points="144.77,-205.36 143.3,-215.85 150.99,-208.56 144.77,-205.36"/>
</g>
</g>
</svg>
