<?xml version="1.0" encoding="UTF-8" standalone="no"?>
<!DOCTYPE svg PUBLIC "-//W3C//DTD SVG 1.1//EN"
 "http://www.w3.org/Graphics/SVG/1.1/DTD/svg11.dtd">
<!-- Generated by graphviz version 8.1.0 (0)
 -->
<!-- Pages: 1 -->
<svg width="282pt" height="260pt"
 viewBox="0.00 0.00 282.00 260.00" xmlns="http://www.w3.org/2000/svg" xmlns:xlink="http://www.w3.org/1999/xlink">
<g id="graph0" class="graph" transform="scale(1 1) rotate(0) translate(4 256)">
<polygon fill="white" stroke="none" points="-4,4 -4,-256 278,-256 278,4 -4,4"/>
<!-- D1 -->
<g id="node1" class="node">
<title>D1</title>
<ellipse fill="none" stroke="black" cx="27" cy="-18" rx="27" ry="18"/>
<text text-anchor="middle" x="27" y="-13.32" font-family="Times,serif" font-size="14.00">D1</text>
</g>
<!-- H1 -->
<g id="node6" class="node">
<title>H1</title>
<ellipse fill="none" stroke="black" cx="27" cy="-90" rx="27" ry="18"/>
<text text-anchor="middle" x="27" y="-85.33" font-family="Times,serif" font-size="14.00">H1</text>
</g>
<!-- D1&#45;&gt;H1 -->
<g id="edge1" class="edge">
<title>D1&#45;&gt;H1</title>
<path fill="none" stroke="black" d="M27,-36.3C27,-43.76 27,-52.68 27,-61.03"/>
<polygon fill="black" stroke="black" points="23.5,-60.9 27,-70.9 30.5,-60.9 23.5,-60.9"/>
</g>
<!-- D2 -->
<g id="node2" class="node">
<title>D2</title>
<ellipse fill="none" stroke="black" cx="101" cy="-18" rx="28.06" ry="18"/>
<text text-anchor="middle" x="101" y="-13.32" font-family="Times,serif" font-size="14.00">D2&#39;</text>
</g>
<!-- H2 -->
<g id="node5" class="node">
<title>H2</title>
<ellipse fill="none" stroke="black" cx="101" cy="-90" rx="28.59" ry="18"/>
<text text-anchor="middle" x="101" y="-85.33" font-family="Times,serif" font-size="14.00">H2&#39;</text>
</g>
<!-- D2&#45;&gt;H2 -->
<g id="edge2" class="edge">
<title>D2&#45;&gt;H2</title>
<path fill="none" stroke="black" d="M101,-36.3C101,-43.76 101,-52.68 101,-61.03"/>
<polygon fill="black" stroke="black" points="97.5,-60.9 101,-70.9 104.5,-60.9 97.5,-60.9"/>
</g>
<!-- D3 -->
<g id="node3" class="node">
<title>D3</title>
<ellipse fill="none" stroke="black" cx="175" cy="-18" rx="27" ry="18"/>
<text text-anchor="middle" x="175" y="-13.32" font-family="Times,serif" font-size="14.00">D3</text>
</g>
<!-- H3 -->
<g id="node7" class="node">
<title>H3</title>
<ellipse fill="none" stroke="black" cx="175" cy="-90" rx="27" ry="18"/>
<text text-anchor="middle" x="175" y="-85.33" font-family="Times,serif" font-size="14.00">H3</text>
</g>
<!-- D3&#45;&gt;H3 -->
<g id="edge3" class="edge">
<title>D3&#45;&gt;H3</title>
<path fill="none" stroke="black" d="M175,-36.3C175,-43.76 175,-52.68 175,-61.03"/>
<polygon fill="black" stroke="black" points="171.5,-60.9 175,-70.9 178.5,-60.9 171.5,-60.9"/>
</g>
<!-- D4 -->
<g id="node4" class="node">
<title>D4</title>
<ellipse fill="none" stroke="black" cx="247" cy="-18" rx="27" ry="18"/>
<text text-anchor="middle" x="247" y="-13.32" font-family="Times,serif" font-size="14.00">D4</text>
</g>
<!-- H4 -->
<g id="node8" class="node">
<title>H4</title>
<ellipse fill="none" stroke="black" cx="247" cy="-90" rx="27" ry="18"/>
<text text-anchor="middle" x="247" y="-85.33" font-family="Times,serif" font-size="14.00">H4</text>
</g>
<!-- D4&#45;&gt;H4 -->
<g id="edge4" class="edge">
<title>D4&#45;&gt;H4</title>
<path fill="none" stroke="black" d="M247,-36.3C247,-43.76 247,-52.68 247,-61.03"/>
<polygon fill="black" stroke="black" points="243.5,-60.9 247,-70.9 250.5,-60.9 243.5,-60.9"/>
</g>
<!-- A1 -->
<g id="node9" class="node">
<title>A1</title>
<ellipse fill="none" stroke="black" cx="101" cy="-162" rx="27.01" ry="18"/>
<text text-anchor="middle" x="101" y="-157.32" font-family="Times,serif" font-size="14.00">A1&#39;</text>
</g>
<!-- H2&#45;&gt;A1 -->
<g id="edge6" class="edge">
<title>H2&#45;&gt;A1</title>
<path fill="none" stroke="black" d="M101,-108.3C101,-115.76 101,-124.68 101,-133.03"/>
<polygon fill="black" stroke="black" points="97.5,-132.9 101,-142.9 104.5,-132.9 97.5,-132.9"/>
</g>
<!-- H1&#45;&gt;A1 -->
<g id="edge5" class="edge">
<title>H1&#45;&gt;A1</title>
<path fill="none" stroke="black" d="M41.98,-105.17C52.34,-114.97 66.32,-128.2 78.08,-139.32"/>
<polygon fill="black" stroke="black" points="75.12,-141.29 84.79,-145.62 79.93,-136.2 75.12,-141.29"/>
</g>
<!-- A2 -->
<g id="node10" class="node">
<title>A2</title>
<ellipse fill="none" stroke="black" cx="175" cy="-162" rx="27" ry="18"/>
<text text-anchor="middle" x="175" y="-157.32" font-family="Times,serif" font-size="14.00">A2</text>
</g>
<!-- H3&#45;&gt;A2 -->
<g id="edge7" class="edge">
<title>H3&#45;&gt;A2</title>
<path fill="none" stroke="black" d="M175,-108.3C175,-115.76 175,-124.68 175,-133.03"/>
<polygon fill="black" stroke="black" points="171.5,-132.9 175,-142.9 178.5,-132.9 171.5,-132.9"/>
</g>
<!-- H4&#45;&gt;A2 -->
<g id="edge8" class="edge">
<title>H4&#45;&gt;A2</title>
<path fill="none" stroke="black" d="M232.08,-105.5C222.14,-115.17 208.88,-128.06 197.65,-138.98"/>
<polygon fill="black" stroke="black" points="195.63,-136.03 190.9,-145.51 200.51,-141.05 195.63,-136.03"/>
</g>
<!-- R -->
<g id="node11" class="node">
<title>R</title>
<ellipse fill="none" stroke="black" cx="138" cy="-234" rx="27" ry="18"/>
<text text-anchor="middle" x="138" y="-229.32" font-family="Times,serif" font-size="14.00">R&#39;</text>
</g>
<!-- A1&#45;&gt;R -->
<g id="edge9" class="edge">
<title>A1&#45;&gt;R</title>
<path fill="none" stroke="black" d="M109.58,-179.24C113.97,-187.54 119.42,-197.85 124.37,-207.21"/>
<polygon fill="black" stroke="black" points="121.7,-208.65 129.46,-215.85 127.89,-205.38 121.7,-208.65"/>
</g>
<!-- A2&#45;&gt;R -->
<g id="edge10" class="edge">
<title>A2&#45;&gt;R</title>
<path fill="none" stroke="black" d="M166.42,-179.24C162.03,-187.54 156.58,-197.85 151.63,-207.21"/>
<polygon fill="black" stroke="black" points="148.11,-205.38 146.54,-215.85 154.3,-208.65 148.11,-205.38"/>
</g>
</g>
</svg>
